<?xml version="1.0" standalone="no"?>
<!DOCTYPE svg PUBLIC "-//W3C//DTD SVG 20010904//EN"
 "http://www.w3.org/TR/2001/REC-SVG-20010904/DTD/svg10.dtd">
<svg version="1.0" xmlns="http://www.w3.org/2000/svg"
 width="512.000000pt" height="512.000000pt" viewBox="0 0 512.000000 512.000000"
 preserveAspectRatio="xMidYMid meet">
<metadata>
Created by potrace 1.11, written by Peter Selinger 2001-2013
</metadata>
<g transform="translate(0.000000,512.000000) scale(0.100000,-0.100000)"
fill="#000000" stroke="none">
<path d="M2147 4283 c-1 0 -121 -4 -267 -8 -298 -7 -434 -12 -565 -20 -49 -3
-128 -8 -175 -10 -47 -3 -103 -7 -125 -10 -22 -2 -67 -7 -100 -10 -33 -3 -71
-8 -85 -10 -14 -3 -43 -7 -65 -10 -64 -9 -166 -44 -222 -77 -144 -81 -267
-251 -296 -409 -3 -13 -8 -35 -11 -49 -55 -234 -93 -971 -71 -1385 19 -386 31
-515 60 -680 28 -157 40 -196 83 -280 81 -155 263 -286 430 -311 21 -3 44 -7
52 -9 8 -3 44 -7 80 -10 36 -4 76 -8 90 -11 14 -2 59 -7 100 -10 41 -2 99 -7
130 -9 52 -4 182 -11 365 -20 643 -30 1887 -20 2405 20 30 2 87 7 125 9 39 3
86 8 105 11 19 2 55 7 80 10 256 33 391 107 508 277 69 100 97 199 131 463 6
44 14 114 17 155 3 41 7 91 9 110 10 98 19 383 19 610 0 520 -33 920 -95 1140
-42 154 -126 272 -252 355 -60 39 -164 81 -228 90 -24 4 -46 8 -49 10 -3 2
-34 6 -70 10 -36 4 -73 9 -82 10 -9 2 -59 7 -110 11 -51 3 -109 8 -128 9 -98
9 -365 21 -710 31 -195 5 -1079 12 -1083 7z m24 -1011 c46 -27 104 -60 129
-74 55 -32 269 -156 290 -168 8 -5 134 -78 280 -161 146 -84 281 -162 300
-173 19 -12 46 -27 60 -34 50 -24 83 -47 81 -57 -1 -6 -56 -42 -124 -81 -236
-137 -786 -454 -831 -479 -25 -14 -95 -54 -157 -90 -61 -36 -113 -64 -116 -62
-2 3 -4 283 -4 623 0 800 0 804 5 804 2 0 41 -22 87 -48z"/>
</g>
</svg>
